<svg xmlns="http://www.w3.org/2000/svg" style="display:none">

  <symbol id="icon-account-alert" viewBox="0 0 36 36">
   <path d="M23.3333 14V8.16669H25.6666V15.1667H23.3333M23.3333 19.8334H25.6666V17.5H23.3333M11.6666 15.1667C14.7816 15.1667 20.9999 16.73 20.9999 19.8334V23.3334H2.33325V19.8334C2.33325 16.73 8.55159 15.1667 11.6666 15.1667ZM11.6666 4.66669C12.9043 4.66669 14.0912 5.15835 14.9664 6.03352C15.8416 6.90869 16.3333 8.09568 16.3333 9.33335C16.3333 10.571 15.8416 11.758 14.9664 12.6332C14.0912 13.5084 12.9043 14 11.6666 14C10.4289 14 9.24192 13.5084 8.36675 12.6332C7.49158 11.758 6.99992 10.571 6.99992 9.33335C6.99992 8.09568 7.49158 6.90869 8.36675 6.03352C9.24192 5.15835 10.4289 4.66669 11.6666 4.66669ZM11.6666 17.3834C8.20159 17.3834 4.54992 19.0867 4.54992 19.8334V21.1167H18.7833V19.8334C18.7833 19.0867 15.1316 17.3834 11.6666 17.3834ZM11.6666 6.88335C11.0168 6.88335 10.3936 7.14148 9.93417 7.60094C9.47471 8.06041 9.21659 8.68357 9.21659 9.33335C9.21659 9.98313 9.47471 10.6063 9.93417 11.0658C10.3936 11.5252 11.0168 11.7834 11.6666 11.7834C12.3164 11.7834 12.9395 11.5252 13.399 11.0658C13.8585 10.6063 14.1166 9.98313 14.1166 9.33335C14.1166 8.68357 13.8585 8.06041 13.399 7.60094C12.9395 7.14148 12.3164 6.88335 11.6666 6.88335Z"/>
  </symbol>

  <symbol id="icon-address" viewBox="0 0 24 24">
   <path d="M11 0C8.08369 0.0033903 5.28779 1.1465 3.22564 3.17859C1.16348 5.21067 0.00345217 7.96579 1.17029e-05 10.8396C-0.00348119 13.1881 0.774992 15.4728 2.21601 17.3433C2.21601 17.3433 2.51601 17.7326 2.56501 17.7887L11 27.5917L19.439 17.7838C19.483 17.7316 19.784 17.3433 19.784 17.3433L19.785 17.3404C21.2253 15.4707 22.0034 13.187 22 10.8396C21.9966 7.96579 20.8365 5.21067 18.7744 3.17859C16.7122 1.1465 13.9163 0.0033903 11 0ZM11 14.7813C10.2089 14.7813 9.43553 14.5501 8.77773 14.117C8.11993 13.6838 7.60724 13.0682 7.30449 12.348C7.00174 11.6277 6.92253 10.8352 7.07687 10.0706C7.23121 9.30599 7.61217 8.60366 8.17158 8.0524C8.73099 7.50115 9.44373 7.12574 10.2197 6.97365C10.9956 6.82156 11.7998 6.89962 12.5307 7.19796C13.2616 7.49629 13.8864 8.00151 14.3259 8.64971C14.7654 9.29792 15 10.06 15 10.8396C14.9987 11.8846 14.5768 12.8864 13.827 13.6253C13.0771 14.3642 12.0605 14.7799 11 14.7813Z"/>
  </symbol>

  <symbol id="icon-calendar" viewBox="0 0 24 24">
    <path d="M9.99977 9.25C7.72977 9.25 7.26977 5.81 7.26977 5.81C6.99977 4.02 7.81977 2 9.96977 2C12.1298 2 12.9498 4.02 12.6798 5.81C12.6798 5.81 12.2698 9.25 9.99977 9.25ZM9.99977 11.82L12.7198 10C15.1098 10 17.2398 12.33 17.2398 14.53V17.02C17.2398 17.02 13.5898 18.15 9.99977 18.15C6.34977 18.15 2.75977 17.02 2.75977 17.02V14.53C2.75977 12.28 4.69977 10.05 7.22977 10.05L9.99977 11.82Z"/>
  </symbol>

  <symbol id="icon-close-cart" viewBox="0 0 24 24">
   <path fill-rule="evenodd" clip-rule="evenodd" d="M10 0C4.47727 0 0 4.47727 0 10C0 15.5227 4.47727 20 10 20C15.5227 20 20 15.5227 20 10C20 4.47727 15.5227 0 10 0ZM13.37 7.91545C13.5356 7.744 13.6272 7.51436 13.6252 7.276C13.6231 7.03764 13.5275 6.80963 13.3589 6.64107C13.1904 6.47252 12.9624 6.37691 12.724 6.37484C12.4856 6.37277 12.256 6.4644 12.0845 6.63L10 8.71455L7.91545 6.63C7.83159 6.54317 7.73128 6.47392 7.62037 6.42627C7.50946 6.37863 7.39016 6.35355 7.26946 6.3525C7.14875 6.35145 7.02904 6.37445 6.91731 6.42016C6.80559 6.46587 6.70409 6.53338 6.61873 6.61873C6.53338 6.70409 6.46587 6.80559 6.42016 6.91731C6.37445 7.02904 6.35145 7.14875 6.3525 7.26946C6.35355 7.39016 6.37863 7.50946 6.42627 7.62037C6.47392 7.73128 6.54317 7.83159 6.63 7.91545L8.71455 10L6.63 12.0845C6.54317 12.1684 6.47392 12.2687 6.42627 12.3796C6.37863 12.4905 6.35355 12.6098 6.3525 12.7305C6.35145 12.8513 6.37445 12.971 6.42016 13.0827C6.46587 13.1944 6.53338 13.2959 6.61873 13.3813C6.70409 13.4666 6.80559 13.5341 6.91731 13.5798C7.02904 13.6255 7.14875 13.6486 7.26946 13.6475C7.39016 13.6465 7.50946 13.6214 7.62037 13.5737C7.73128 13.5261 7.83159 13.4568 7.91545 13.37L10 11.2855L12.0845 13.37C12.256 13.5356 12.4856 13.6272 12.724 13.6252C12.9624 13.6231 13.1904 13.5275 13.3589 13.3589C13.5275 13.1904 13.6231 12.9624 13.6252 12.724C13.6272 12.4856 13.5356 12.256 13.37 12.0845L11.2855 10L13.37 7.91545Z" fill="#9F9F9F"/>
  </symbol>


<symbol id="icon-customer" viewBox="0 0 24 24">
  <path d="M54.6936 23.9628C54.2992 10.6825 43.3742 0 29.9999 0C16.6257 0 5.70065 10.6825 5.30618 23.9628L3.52936 25.7396V37.7898L5.29406 39.5545V47.7647C5.29406 52.5652 9.19948 56.4706 13.9999 56.4706H16.1858C16.9143 58.5246 18.8758 60 21.1764 60H24.7058C27.0079 60 28.9705 58.5225 29.6978 56.4664C29.7987 56.4681 29.8997 56.4706 29.9999 56.4706C38.5221 56.4706 45.6527 50.3981 47.2922 42.3529H51.9074L56.4705 37.7898V25.7396L54.6936 23.9628ZM29.9999 3.52941C40.4742 3.52941 49.1954 11.174 50.8807 21.1765H47.2922C45.6527 13.1313 38.5221 7.05882 29.9999 7.05882C21.4778 7.05882 14.3472 13.1313 12.7077 21.1765H9.11924C10.8045 11.174 19.5257 3.52941 29.9999 3.52941ZM43.6709 21.1765C37.9663 21.1594 33.9369 21.5068 30.6148 16.6506L29.0016 14.2926L27.6152 16.7907C25.5952 20.4306 22.8749 21.1765 19.4117 21.1765H16.329C17.9002 15.0944 23.4337 10.5882 29.9999 10.5882C36.5662 10.5882 42.0997 15.0944 43.6709 21.1765ZM12.3529 38.8235H9.55442L7.05877 36.3279V27.2015L9.55442 24.7059H12.3529V38.8235ZM8.82348 47.7647V42.3529H12.7043C13.3687 45.6441 14.9582 48.6652 17.313 51.0916C16.8194 51.6191 16.4322 52.2467 16.1858 52.9412H13.9999C11.1456 52.9412 8.82348 50.6191 8.82348 47.7647ZM24.7058 56.4706H21.1764C20.2032 56.4706 19.4117 55.6791 19.4117 54.7059C19.4117 53.7328 20.2032 52.9412 21.1764 52.9412H24.7058C25.6789 52.9412 26.4705 53.7328 26.4705 54.7059C26.4705 55.6791 25.6789 56.4706 24.7058 56.4706ZM44.1176 38.8235C44.1176 46.608 37.7844 52.9412 29.9999 52.9412C29.8988 52.9412 29.7968 52.9392 29.6949 52.9368C28.9652 50.8851 27.0048 49.4118 24.7058 49.4118C21.0823 49.4198 21.1401 49.3936 20.6884 49.4352C17.6247 46.7498 15.8823 42.9248 15.8823 38.8235V24.7059H19.4117C22.5349 24.7059 26.3384 24.1909 29.2827 20.6076C33.1674 24.6786 37.9147 24.7059 42.1762 24.7059H44.1176V38.8235ZM52.9411 36.3279L50.4455 38.8235H47.647V24.7059H50.4455L52.9411 27.2015V36.3279Z" />
</symbol>

<symbol id="icon-star" viewBox="0 0 24 24">
  <path d="M10 1L13 7L19 7.75L14.88 12.37L16 19L10 16L4 19L5.13 12.37L1 7.75L7 7L10 1Z" fill="#FFC700"/>
</symbol>

<symbol id="icon-filtering" viewBox="0 0 24 24">
  <path d="M22.0238 7.14285H8.92857M6.54762 7.14285H2.97619M22.0238 19.0476H8.92857M6.54762 19.0476H2.97619M16.0714 13.0952H2.97619M22.0238 13.0952H18.4524M7.7381 4.7619C8.05383 4.7619 8.35663 4.88733 8.57989 5.11058C8.80315 5.33384 8.92857 5.63664 8.92857 5.95238V8.33333C8.92857 8.64906 8.80315 8.95187 8.57989 9.17512C8.35663 9.39838 8.05383 9.52381 7.7381 9.52381C7.42236 9.52381 7.11956 9.39838 6.8963 9.17512C6.67304 8.95187 6.54762 8.64906 6.54762 8.33333V5.95238C6.54762 5.63664 6.67304 5.33384 6.8963 5.11058C7.11956 4.88733 7.42236 4.7619 7.7381 4.7619V4.7619ZM7.7381 16.6667C8.05383 16.6667 8.35663 16.7921 8.57989 17.0153C8.80315 17.2386 8.92857 17.5414 8.92857 17.8571V20.2381C8.92857 20.5538 8.80315 20.8566 8.57989 21.0799C8.35663 21.3031 8.05383 21.4286 7.7381 21.4286C7.42236 21.4286 7.11956 21.3031 6.8963 21.0799C6.67304 20.8566 6.54762 20.5538 6.54762 20.2381V17.8571C6.54762 17.5414 6.67304 17.2386 6.8963 17.0153C7.11956 16.7921 7.42236 16.6667 7.7381 16.6667ZM17.2619 10.7143C17.5776 10.7143 17.8804 10.8397 18.1037 11.063C18.327 11.2862 18.4524 11.589 18.4524 11.9048V14.2857C18.4524 14.6014 18.327 14.9042 18.1037 15.1275C17.8804 15.3508 17.5776 15.4762 17.2619 15.4762C16.9462 15.4762 16.6434 15.3508 16.4201 15.1275C16.1969 14.9042 16.0714 14.6014 16.0714 14.2857V11.9048C16.0714 11.589 16.1969 11.2862 16.4201 11.063C16.6434 10.8397 16.9462 10.7143 17.2619 10.7143V10.7143Z" stroke="black" stroke-linecap="round" stroke-linejoin="round"/>
</symbol>

<symbol id="icon-grid" viewBox="0 0 24 24">
 <path d="M18.6667 22.1667C17.7384 22.1667 16.8482 21.7979 16.1918 21.1416C15.5354 20.4852 15.1667 19.5949 15.1667 18.6667C15.1667 17.7384 15.5354 16.8482 16.1918 16.1918C16.8482 15.5354 17.7384 15.1667 18.6667 15.1667C19.5949 15.1667 20.4852 15.5354 21.1415 16.1918C21.7979 16.8482 22.1667 17.7384 22.1667 18.6667C22.1667 19.5949 21.7979 20.4852 21.1415 21.1416C20.4852 21.7979 19.5949 22.1667 18.6667 22.1667ZM9.33334 22.1667C8.40508 22.1667 7.51484 21.7979 6.85846 21.1416C6.20208 20.4852 5.83334 19.5949 5.83334 18.6667C5.83334 17.7384 6.20208 16.8482 6.85846 16.1918C7.51484 15.5354 8.40508 15.1667 9.33334 15.1667C10.2616 15.1667 11.1518 15.5354 11.8082 16.1918C12.4646 16.8482 12.8333 17.7384 12.8333 18.6667C12.8333 19.5949 12.4646 20.4852 11.8082 21.1416C11.1518 21.7979 10.2616 22.1667 9.33334 22.1667ZM18.6667 12.8333C17.7384 12.8333 16.8482 12.4646 16.1918 11.8082C15.5354 11.1518 15.1667 10.2616 15.1667 9.33334C15.1667 8.40509 15.5354 7.51485 16.1918 6.85847C16.8482 6.20209 17.7384 5.83334 18.6667 5.83334C19.5949 5.83334 20.4852 6.20209 21.1415 6.85847C21.7979 7.51485 22.1667 8.40509 22.1667 9.33334C22.1667 10.2616 21.7979 11.1518 21.1415 11.8082C20.4852 12.4646 19.5949 12.8333 18.6667 12.8333ZM9.33334 12.8333C8.40508 12.8333 7.51484 12.4646 6.85846 11.8082C6.20208 11.1518 5.83334 10.2616 5.83334 9.33334C5.83334 8.40509 6.20208 7.51485 6.85846 6.85847C7.51484 6.20209 8.40508 5.83334 9.33334 5.83334C10.2616 5.83334 11.1518 6.20209 11.8082 6.85847C12.4646 7.51485 12.8333 8.40509 12.8333 9.33334C12.8333 10.2616 12.4646 11.1518 11.8082 11.8082C11.1518 12.4646 10.2616 12.8333 9.33334 12.8333Z" fill="black"/>
</symbol>

<symbol id="icon-quarantee" viewBox="0 0 24 24">
  <g clip-path="url(#clip0_117_621)">
  <path d="M56.786 21.2612C55.9943 18.8097 56.3318 15.1296 54.274 12.2882C52.2 9.42438 48.5929 8.61039 46.556 7.1207C44.5406 5.64672 42.6656 2.43918 39.2755 1.33293C35.981 0.257852 32.6121 1.71672 30 1.71672C27.3882 1.71672 24.0196 0.2575 20.7245 1.33281C17.335 2.43883 15.4584 5.64707 13.4443 7.12035C11.4097 8.60828 7.79988 9.42449 5.72625 12.2879C3.6702 15.127 4.0043 18.8154 3.21398 21.2611C2.46187 23.5888 0 26.3825 0 30.0003C0 33.6203 2.45906 36.4032 3.21398 38.7393C4.0057 41.1909 3.6682 44.8709 5.72602 47.7123C7.79988 50.5763 11.4069 51.3902 13.444 52.88C15.459 54.3537 17.3344 57.5615 20.7245 58.6676C24.0168 59.742 27.3909 58.2838 30 58.2838C32.6054 58.2838 35.9875 59.7405 39.2755 58.6677C42.6652 57.5617 44.5405 54.3542 46.5557 52.8802C48.5903 51.3923 52.2001 50.5761 54.2738 47.7127C56.3299 44.8735 55.9956 41.1854 56.786 38.7394C57.5381 36.4116 60 33.618 60 30.0003C60 26.3805 57.5415 23.5984 56.786 21.2612ZM52.3257 37.298C51.4029 40.1545 51.6446 43.3512 50.4775 44.963C49.2946 46.5962 46.1869 47.3423 43.7889 49.0963C41.4171 50.8308 39.7548 53.5804 37.8214 54.2112C35.9924 54.8082 33.0116 53.5961 30.0001 53.5961C26.9666 53.5961 24.0165 54.8107 22.1787 54.2112C20.2455 53.5804 18.5856 50.8327 16.2113 49.0962C13.8274 47.3528 10.702 46.5914 9.52254 44.9628C8.3591 43.3564 8.59172 40.1375 7.67449 37.2981C6.77543 34.5162 4.6875 32.1074 4.6875 30.0003C4.6875 27.891 6.77355 25.4905 7.67426 22.7025C8.59711 19.8462 8.35535 16.6492 9.52254 15.0375C10.7047 13.4054 13.8148 12.6569 16.2113 10.9042C18.5905 9.1641 20.2424 6.42109 22.1784 5.78934C24.006 5.19309 26.9965 6.40445 29.9999 6.40445C33.0389 6.40445 35.9816 5.18898 37.8213 5.78934C39.7542 6.42004 41.4156 9.16879 43.7889 10.9043C46.1723 12.6477 49.298 13.4091 50.4775 15.0377C51.6411 16.6444 51.4072 19.86 52.3255 22.7023V22.7024C53.2246 25.4843 55.3125 27.8931 55.3125 30.0003C55.3125 32.1095 53.2264 34.51 52.3257 37.298ZM40.798 22.4774C41.7134 23.3928 41.7134 24.8767 40.798 25.792L29.0668 37.5231C28.1515 38.4385 26.6674 38.4384 25.7522 37.5231L19.2021 30.973C18.2868 30.0577 18.2866 28.5737 19.202 27.6585C20.1173 26.7433 21.6015 26.7432 22.5165 27.6585L27.4095 32.5513L37.4832 22.4775C38.3986 21.5622 39.8827 21.5622 40.798 22.4774Z" fill="#242424"/>
    </g>
  <defs>
  <clipPath id="clip0_117_621">
  <rect width="60" height="60" fill="white"/>
  </clipPath>
  </defs>
</symbol>

<symbol id="icon-heart" viewBox="0 0 36 36">
 <path d="M8.16659 3.5C4.94542 3.5 2.33325 6.08533 2.33325 9.275C2.33325 11.8498 3.35409 17.9608 13.4026 24.1383C13.5826 24.2479 13.7892 24.3058 13.9999 24.3058C14.2106 24.3058 14.4173 24.2479 14.5973 24.1383C24.6458 17.9608 25.6666 11.8498 25.6666 9.275C25.6666 6.08533 23.0544 3.5 19.8333 3.5C16.6121 3.5 13.9999 7 13.9999 7C13.9999 7 11.3878 3.5 8.16659 3.5Z" stroke="black" stroke-width="2" stroke-linecap="round" stroke-linejoin="round" fill="white"/>
</symbol>

<symbol id="icon-search" viewBox="0 0 36 36">
  <path d="M24.5 24.5L19.2663 19.257M22.1666 12.25C22.1666 14.88 21.1219 17.4024 19.2621 19.2621C17.4024 21.1219 14.88 22.1666 12.25 22.1666C9.61992 22.1666 7.09757 21.1219 5.23784 19.2621C3.3781 17.4024 2.33331 14.88 2.33331 12.25C2.33331 9.61992 3.3781 7.09757 5.23784 5.23784C7.09757 3.3781 9.61992 2.33331 12.25 2.33331C14.88 2.33331 17.4024 3.3781 19.2621 5.23784C21.1219 7.09757 22.1666 9.61992 22.1666 12.25V12.25Z" stroke="black" stroke-width="2" fill="white" stroke-linecap="round"/>
</symbol>

<symbol id="icon-phone" viewBox="0 0 24 24">
 <path d="M21.8591 17.4434L16.7779 12.8234C16.5377 12.6051 16.222 12.4886 15.8976 12.4987C15.5732 12.5087 15.2654 12.6444 15.0391 12.8771L12.0479 15.9534C11.3279 15.8159 9.88035 15.3646 8.39035 13.8784C6.90035 12.3871 6.4491 10.9359 6.31535 10.2209L9.3891 7.22837C9.62212 7.00228 9.75802 6.69439 9.76805 6.36987C9.77809 6.04536 9.66146 5.72967 9.44285 5.48962L4.8241 0.409615C4.60541 0.168811 4.30145 0.0227454 3.97679 0.00243974C3.65214 -0.017866 3.33235 0.089188 3.08535 0.300865L0.372853 2.62712C0.156741 2.84401 0.0277519 3.13268 0.0103525 3.43836C-0.00839755 3.75086 -0.365897 11.1534 5.3741 16.8959C10.3816 21.9021 16.6541 22.2684 18.3816 22.2684C18.6341 22.2684 18.7891 22.2609 18.8304 22.2584C19.136 22.2413 19.4245 22.1117 19.6404 21.8946L21.9654 19.1809C22.1779 18.9347 22.2857 18.6151 22.2659 18.2905C22.246 17.9659 22.1 17.6618 21.8591 17.4434Z" fill="black"/>
</symbol>

<symbol id="icon-podlock" viewBox="0 0 24 24">
  <path fill-rule="evenodd" clip-rule="evenodd" d="M6.11047 9.6734C6.16563 9.6181 6.23115 9.57424 6.30328 9.5443C6.37542 9.51437 6.45275 9.49896 6.53085 9.49896C6.60894 9.49896 6.68628 9.51437 6.75841 9.5443C6.83055 9.57424 6.89607 9.6181 6.95122 9.6734L8.3121 11.0355L9.67297 9.6734C9.78446 9.56191 9.93568 9.49927 10.0933 9.49927C10.251 9.49927 10.4022 9.56191 10.5137 9.6734C10.6252 9.78489 10.6878 9.9361 10.6878 10.0938C10.6878 10.2514 10.6252 10.4027 10.5137 10.5141L9.15166 11.875L10.5137 13.2359C10.6252 13.3474 10.6878 13.4986 10.6878 13.6563C10.6878 13.8139 10.6252 13.9652 10.5137 14.0766C10.4022 14.1881 10.251 14.2508 10.0933 14.2508C9.93568 14.2508 9.78446 14.1881 9.67297 14.0766L8.3121 12.7146L6.95122 14.0766C6.83973 14.1881 6.68852 14.2508 6.53085 14.2508C6.37318 14.2508 6.22196 14.1881 6.11047 14.0766C5.99898 13.9652 5.93635 13.8139 5.93635 13.6563C5.93635 13.4986 5.99898 13.3474 6.11047 13.2359L7.47253 11.875L6.11047 10.5141C6.05518 10.459 6.01131 10.3935 5.98137 10.3213C5.95144 10.2492 5.93604 10.1719 5.93604 10.0938C5.93604 10.0157 5.95144 9.93834 5.98137 9.86621C6.01131 9.79407 6.05518 9.72855 6.11047 9.6734Z" fill="#9F9F9F"/>
  <path d="M8.3125 1.1875C9.09986 1.1875 9.85497 1.50028 10.4117 2.05703C10.9685 2.61378 11.2812 3.36889 11.2812 4.15625V4.75H5.34375V4.15625C5.34375 3.36889 5.65653 2.61378 6.21328 2.05703C6.77003 1.50028 7.52514 1.1875 8.3125 1.1875ZM12.4688 4.75V4.15625C12.4688 3.05394 12.0309 1.99679 11.2514 1.21734C10.472 0.437889 9.41481 0 8.3125 0C7.21019 0 6.15304 0.437889 5.37359 1.21734C4.59414 1.99679 4.15625 3.05394 4.15625 4.15625V4.75H0V16.625C0 17.2549 0.250223 17.859 0.695621 18.3044C1.14102 18.7498 1.74511 19 2.375 19H14.25C14.8799 19 15.484 18.7498 15.9294 18.3044C16.3748 17.859 16.625 17.2549 16.625 16.625V4.75H12.4688ZM1.1875 5.9375H15.4375V16.625C15.4375 16.9399 15.3124 17.242 15.0897 17.4647C14.867 17.6874 14.5649 17.8125 14.25 17.8125H2.375C2.06006 17.8125 1.75801 17.6874 1.53531 17.4647C1.31261 17.242 1.1875 16.9399 1.1875 16.625V5.9375Z" fill="#9F9F9F"/>
</symbol>

<symbol id="icon-shipping" viewBox="0 0 24 24">
 <g clip-path="url(#clip0_117_629)">
<path d="M55.3479 31.1019V3.77964C55.3479 2.80489 54.5576 2.01465 53.5829 2.01465H6.29505C5.3203 2.01465 4.53006 2.80489 4.53006 3.77964V33.28C3.67863 33.404 2.84626 33.7346 2.10991 34.2812C-0.211409 35.9273 -0.760439 39.6109 1.18399 41.8827L9.13386 51.5204C14.0549 57.2798 19.2824 57.9854 27.0538 57.9854C33.7228 57.9854 36.7043 58.0148 42.5164 56.6905L48.1759 55.3369C49.0936 56.6184 50.5504 57.4485 52.1882 57.4485H54.9762C57.7463 57.4485 59.9999 55.0744 59.9999 52.1561V36.3784C60 33.592 57.9449 31.3031 55.3479 31.1019ZM47.4146 34.7326L45.0629 33.5382C41.1963 31.5865 36.7258 31.5142 32.7981 33.3403C31.7265 33.7618 29.3893 35.1759 28.177 35.1286H20.0167C17.3099 35.1286 15.1076 37.3307 15.1076 40.0376V41.3247C15.0925 41.3087 15.0766 41.2936 15.0616 41.2773L9.23423 34.9519C8.88158 34.5692 8.4854 34.2489 8.06016 33.9919V16.481H22.504V22.951C22.504 23.9257 23.2943 24.7159 24.269 24.7159H35.4062C36.3809 24.7159 37.1712 23.9257 37.1712 22.951V16.481H51.818V31.1018C49.7558 31.2611 48.0362 32.7364 47.4146 34.7326ZM26.0339 16.481H33.6411V21.186H26.0339V16.481ZM51.8179 12.951H37.1712V5.54463H51.818V12.951H51.8179ZM33.6412 5.54463V12.9511H26.034V5.54463H33.6412ZM22.5039 5.54463V12.9511H8.06004V5.54463H22.5039ZM41.6972 53.2568C36.3281 54.4865 33.0945 54.4367 27.1171 54.4367C19.8218 54.4367 16.2969 54.3188 11.8571 49.274L3.90725 39.6363C2.52444 37.8357 5.02908 35.7101 6.63804 37.3435L12.4655 43.669C14.0056 45.2941 15.9437 46.1885 18.3324 46.2411H34.4889C35.4636 46.2411 36.2539 45.4508 36.2539 44.4761C36.2539 43.5013 35.4636 42.7111 34.4889 42.7111H18.6375V40.0373C18.6375 39.277 19.2561 38.6583 20.0165 38.6583H28.1769C30.0153 38.79 32.6688 37.2549 34.2863 36.541C37.2279 35.1733 40.5762 35.2274 43.4683 36.6872L47.1647 38.5646V51.9489L41.6972 53.2568ZM56.4701 52.156C56.4701 53.1278 55.7999 53.9184 54.9763 53.9184H52.1883C51.3646 53.9184 50.6947 53.1278 50.6947 52.156V36.3784C50.6947 35.4066 51.3648 34.6159 52.1883 34.6159H54.9763C55.7999 34.6159 56.4701 35.4065 56.4701 36.3784V52.156Z" fill="#242424"/>
</g>
<defs>
<clipPath id="clip0_117_629">
<rect width="60" height="60" fill="white"/>
</clipPath>
</defs>
</symbol>

<symbol id="icon-shipping-cart" viewBox="0 0 36 36">
  <path d="M25.2354 19.1926H8.95225L9.76982 17.5273L23.3542 17.5027C23.8136 17.5027 24.2073 17.1746 24.2894 16.7207L26.1706 6.19062C26.2198 5.91445 26.146 5.63008 25.9655 5.41406C25.8763 5.30775 25.7651 5.22211 25.6395 5.16309C25.5139 5.10407 25.377 5.07308 25.2382 5.07227L7.95693 5.01484L7.80928 4.32031C7.71631 3.87734 7.31709 3.55469 6.86318 3.55469H2.63857C2.38258 3.55469 2.13707 3.65638 1.95605 3.8374C1.77503 4.01841 1.67334 4.26393 1.67334 4.51992C1.67334 4.77592 1.77503 5.02143 1.95605 5.20245C2.13707 5.38346 2.38258 5.48516 2.63857 5.48516H6.08115L6.72646 8.55312L8.31514 16.2449L6.26982 19.5836C6.16361 19.727 6.09963 19.8972 6.08514 20.075C6.07064 20.2528 6.1062 20.4312 6.18779 20.5898C6.35186 20.9152 6.68271 21.1203 7.04912 21.1203H8.76631C8.40023 21.6065 8.20249 22.1988 8.20303 22.8074C8.20303 24.3551 9.46084 25.6129 11.0085 25.6129C12.5562 25.6129 13.814 24.3551 13.814 22.8074C13.814 22.1977 13.6116 21.6043 13.2507 21.1203H17.6558C17.2897 21.6065 17.0919 22.1988 17.0925 22.8074C17.0925 24.3551 18.3503 25.6129 19.8979 25.6129C21.4456 25.6129 22.7034 24.3551 22.7034 22.8074C22.7034 22.1977 22.5011 21.6043 22.1401 21.1203H25.2382C25.7687 21.1203 26.2034 20.6883 26.2034 20.1551C26.2018 19.8994 26.0992 19.6546 25.9178 19.4743C25.7365 19.294 25.4912 19.1927 25.2354 19.1926ZM8.35889 6.91797L24.1034 6.96992L22.5612 15.6051L10.1937 15.627L8.35889 6.91797ZM11.0085 23.6715C10.5327 23.6715 10.1444 23.2832 10.1444 22.8074C10.1444 22.3316 10.5327 21.9434 11.0085 21.9434C11.4843 21.9434 11.8726 22.3316 11.8726 22.8074C11.8726 23.0366 11.7815 23.2564 11.6195 23.4184C11.4574 23.5805 11.2377 23.6715 11.0085 23.6715ZM19.8979 23.6715C19.4222 23.6715 19.0339 23.2832 19.0339 22.8074C19.0339 22.3316 19.4222 21.9434 19.8979 21.9434C20.3737 21.9434 20.762 22.3316 20.762 22.8074C20.762 23.0366 20.671 23.2564 20.5089 23.4184C20.3469 23.5805 20.1271 23.6715 19.8979 23.6715Z" fill="black"/>
</symbol>

<symbol id="icon-tag" viewBox="0 0 24 24">
  <path d="M12.8966 21.968C12.3666 21.97 11.8566 21.758 11.4826 21.382L3.64564 13.547C3.44131 13.3434 3.28363 13.0978 3.18349 12.8272C3.08335 12.5567 3.04314 12.2676 3.06564 11.98L3.56564 5.41401C3.60018 4.93599 3.80617 4.48652 4.1457 4.14827C4.48524 3.81002 4.93549 3.60574 5.41364 3.57301L11.9796 3.07301C12.0316 3.06201 12.0826 3.06201 12.1346 3.06201C12.6646 3.06201 13.1716 3.27201 13.5446 3.64801L21.3826 11.482C21.5684 11.6677 21.7158 11.8883 21.8164 12.131C21.917 12.3737 21.9687 12.6338 21.9687 12.8965C21.9687 13.1592 21.917 13.4194 21.8164 13.6621C21.7158 13.9048 21.5684 14.1253 21.3826 14.311L14.3106 21.382C14.1254 21.5683 13.905 21.716 13.6623 21.8166C13.4196 21.9172 13.1594 21.9687 12.8966 21.968ZM8.65364 6.65401C8.32475 6.65411 8.00096 6.73531 7.71094 6.89042C7.42093 7.04554 7.17364 7.26978 6.99099 7.54329C6.80834 7.8168 6.69596 8.13113 6.6638 8.45845C6.63164 8.78576 6.68069 9.11595 6.80662 9.41978C6.93255 9.72361 7.13146 9.99169 7.38574 10.2003C7.64002 10.4089 7.94181 10.5516 8.26439 10.6157C8.58698 10.6798 8.92039 10.6633 9.2351 10.5678C9.54982 10.4723 9.83611 10.3006 10.0686 10.068L10.0756 10.062L10.0826 10.055L10.0746 10.062C10.3526 9.78158 10.5414 9.42513 10.6171 9.03759C10.6928 8.65006 10.6522 8.24877 10.5002 7.88432C10.3482 7.51986 10.0918 7.20855 9.76318 6.98961C9.43457 6.77066 9.04851 6.65389 8.65364 6.65401Z" fill="#9F9F9F"/>
</symbol>

<symbol id="icon-view-list" viewBox="0 0 24 24">
  <path d="M4.5 6.75H19.5C20.2956 6.75 21.0587 7.06607 21.6213 7.62868C22.1839 8.19129 22.5 8.95435 22.5 9.75V14.25C22.5 15.0456 22.1839 15.8087 21.6213 16.3713C21.0587 16.9339 20.2956 17.25 19.5 17.25H4.5C3.70435 17.25 2.94129 16.9339 2.37868 16.3713C1.81607 15.8087 1.5 15.0456 1.5 14.25V9.75C1.5 8.95435 1.81607 8.19129 2.37868 7.62868C2.94129 7.06607 3.70435 6.75 4.5 6.75ZM4.5 8.25C4.10218 8.25 3.72064 8.40804 3.43934 8.68934C3.15804 8.97064 3 9.35218 3 9.75V14.25C3 14.6478 3.15804 15.0294 3.43934 15.3107C3.72064 15.592 4.10218 15.75 4.5 15.75H19.5C19.8978 15.75 20.2794 15.592 20.5607 15.3107C20.842 15.0294 21 14.6478 21 14.25V9.75C21 9.35218 20.842 8.97064 20.5607 8.68934C20.2794 8.40804 19.8978 8.25 19.5 8.25H4.5ZM1.5 3C1.5 2.80109 1.57902 2.61032 1.71967 2.46967C1.86032 2.32902 2.05109 2.25 2.25 2.25H21.75C21.9489 2.25 22.1397 2.32902 22.2803 2.46967C22.421 2.61032 22.5 2.80109 22.5 3C22.5 3.19891 22.421 3.38968 22.2803 3.53033C22.1397 3.67098 21.9489 3.75 21.75 3.75H2.25C2.05109 3.75 1.86032 3.67098 1.71967 3.53033C1.57902 3.38968 1.5 3.19891 1.5 3ZM1.5 21C1.5 20.8011 1.57902 20.6103 1.71967 20.4697C1.86032 20.329 2.05109 20.25 2.25 20.25H21.75C21.9489 20.25 22.1397 20.329 22.2803 20.4697C22.421 20.6103 22.5 20.8011 22.5 21C22.5 21.1989 22.421 21.3897 22.2803 21.5303C22.1397 21.671 21.9489 21.75 21.75 21.75H2.25C2.05109 21.75 1.86032 21.671 1.71967 21.5303C1.57902 21.3897 1.5 21.1989 1.5 21Z" fill="black"/>
</symbol>

<symbol id="icon-working-time" viewBox="0 0 24 24">
 <path d="M23 11.5C23 14.55 21.7884 17.4751 19.6317 19.6317C17.4751 21.7884 14.55 23 11.5 23C8.45001 23 5.52494 21.7884 3.36827 19.6317C1.2116 17.4751 0 14.55 0 11.5C0 8.45001 1.2116 5.52494 3.36827 3.36827C5.52494 1.2116 8.45001 0 11.5 0C14.55 0 17.4751 1.2116 19.6317 3.36827C21.7884 5.52494 23 8.45001 23 11.5ZM11.5 5.03125C11.5 4.84063 11.4243 4.65781 11.2895 4.52302C11.1547 4.38823 10.9719 4.3125 10.7812 4.3125C10.5906 4.3125 10.4078 4.38823 10.273 4.52302C10.1382 4.65781 10.0625 4.84063 10.0625 5.03125V12.9375C10.0625 13.0642 10.0961 13.1886 10.1597 13.2982C10.2233 13.4077 10.3147 13.4985 10.4247 13.5614L15.456 16.4364C15.6211 16.5256 15.8146 16.5467 15.995 16.4952C16.1755 16.4437 16.3287 16.3236 16.4218 16.1607C16.5149 15.9977 16.5406 15.8048 16.4933 15.6232C16.4461 15.4415 16.3297 15.2856 16.169 15.1886L11.5 12.5206V5.03125Z" fill="black"/>
</symbol>

<symbol id="icon-share" >
<path d="M12 10.6667C11.4747 10.6667 11 10.8734 10.644 11.2047L5.94 8.46671C5.97333 8.31337 6 8.16004 6 8.00004C6 7.84004 5.97333 7.68671 5.94 7.53337L10.64 4.79337C11 5.12671 11.4733 5.33337 12 5.33337C13.1067 5.33337 14 4.44004 14 3.33337C14 2.22671 13.1067 1.33337 12 1.33337C10.8933 1.33337 10 2.22671 10 3.33337C10 3.49337 10.0267 3.64671 10.06 3.80004L5.36 6.54004C5 6.20671 4.52667 6.00004 4 6.00004C2.89333 6.00004 2 6.89337 2 8.00004C2 9.10671 2.89333 10 4 10C4.52667 10 5 9.79337 5.36 9.46004L10.0587 12.2054C10.0211 12.3563 10.0014 12.5112 10 12.6667C10 13.0623 10.1173 13.4489 10.3371 13.7778C10.5568 14.1067 10.8692 14.3631 11.2346 14.5145C11.6001 14.6658 12.0022 14.7054 12.3902 14.6283C12.7781 14.5511 13.1345 14.3606 13.4142 14.0809C13.6939 13.8012 13.8844 13.4448 13.9616 13.0569C14.0387 12.6689 13.9991 12.2668 13.8478 11.9013C13.6964 11.5359 13.44 11.2235 13.1111 11.0038C12.7822 10.784 12.3956 10.6667 12 10.6667Z" fill="white"/>

</symbol>

<symbol id="icon-compare" >
 <path d="M10.08 7L11.08 8L14.52 4.55L11 1L10 2L11.8 3.8H2.00004V5.2H11.82L10.08 7ZM5.86004 9L4.86004 8L1.42004 11.5L4.91004 15L5.91004 14L4.10004 12.2H14V10.8H4.10004L5.86004 9Z" />
</symbol>

<symbol id="icon-heart-white" >
 <path d="M7.99973 14.0361C-5.33333 6.66669 3.99999 -1.33331 7.99973 3.72539C12 -1.33331 21.3333 6.66669 7.99973 14.0361Z"   stroke-width="1.8"/>
</symbol>

<symbol id="icon-qt" >
 <path d="M45.7404 3.51562C44.4601 3.51562 43.2599 3.86121 42.2248 4.46156V1.75781C42.2248 0.787031 41.4377 0 40.467 0H12.342C11.3711 0 10.584 0.787031 10.584 1.75781V4.48301C9.5407 3.8693 8.32676 3.51562 7.03125 3.51562C3.15422 3.51562 0 6.66984 0 10.5469C0 13.5041 0.876328 16.3615 2.53418 18.8102C5.35652 22.9789 8.83688 24.0607 11.7168 25.2127C13.3773 29.348 16.7353 32.6252 20.9242 34.1769L19.628 42.4219H19.3732C16.4654 42.4219 14.0998 44.7875 14.0998 47.6953V56.4844H12.342C11.3712 56.4844 10.5841 57.2714 10.5841 58.2422C10.5841 59.213 11.3712 60 12.342 60H40.467C41.4377 60 42.2248 59.213 42.2248 58.2422C42.2248 57.2714 41.4377 56.4844 40.467 56.4844H38.7091V47.6953C38.7091 44.7875 36.3435 42.4219 33.4357 42.4219H33.1809L31.8848 34.177C36.0798 32.623 39.4416 29.3386 41.0997 25.1948C43.8202 24.1066 47.3863 23.0217 50.2376 18.8102C51.8954 16.3615 52.7718 13.504 52.7718 10.5469C52.7716 6.66984 49.6174 3.51562 45.7404 3.51562ZM10.571 20.968C6.285 19.2536 3.51563 15.1631 3.51563 10.5469C3.51563 8.60836 5.09274 7.03125 7.03125 7.03125C8.96977 7.03125 10.5469 8.60836 10.5469 10.5469C10.5469 10.6705 10.5599 10.791 10.5841 10.9073V19.3359C10.5841 19.9009 10.6145 20.4588 10.6726 21.0087L10.571 20.968ZM35.1935 56.4844H17.6154V52.9688H35.1935V56.4844ZM33.4357 45.9375C34.405 45.9375 35.1935 46.7261 35.1935 47.6953V49.4531H17.6154V47.6953C17.6154 46.7261 18.4039 45.9375 19.3732 45.9375C20.3269 45.9375 31.1992 45.9375 33.4357 45.9375ZM23.1867 42.4219L24.3499 35.023C25.0226 35.1107 25.7082 35.1562 26.4045 35.1562C27.1007 35.1562 27.7863 35.1105 28.459 35.023L29.6222 42.4219H23.1867ZM38.7091 19.3359C38.7091 26.1207 33.1893 31.6406 26.4045 31.6406C19.6196 31.6406 14.0998 26.1207 14.0998 19.3359V10.5469H38.7091V19.3359ZM38.7091 7.03125H14.0998V3.51562H38.7091V7.03125ZM42.2005 20.968L42.1381 20.993C42.195 20.4483 42.2247 19.8955 42.2247 19.3359V10.5469C42.2248 8.60836 43.8019 7.03125 45.7404 7.03125C47.6789 7.03125 49.256 8.60836 49.256 10.5469C49.256 15.1631 46.4866 19.2537 42.2005 20.968Z" fill="#242424"/>
</symbol>


<symbol id="icon-warranty" >
 <path d="M56.786 20.3237C55.9943 17.8722 56.3318 14.1921 54.274 11.3507C52.2 8.48688 48.5929 7.67289 46.556 6.1832C44.5406 4.70922 42.6656 1.50168 39.2755 0.39543C35.981 -0.679648 32.6121 0.779219 30 0.779219C27.3882 0.779219 24.0196 -0.68 20.7245 0.395313C17.335 1.50133 15.4584 4.70957 13.4443 6.18285C11.4097 7.67078 7.79988 8.48699 5.72625 11.3504C3.6702 14.1895 4.0043 17.8779 3.21398 20.3236C2.46187 22.6513 0 25.445 0 29.0628C0 32.6828 2.45906 35.4657 3.21398 37.8018C4.0057 40.2534 3.6682 43.9334 5.72602 46.7748C7.79988 49.6388 11.4069 50.4527 13.444 51.9425C15.459 53.4162 17.3344 56.624 20.7245 57.7301C24.0168 58.8045 27.3909 57.3463 30 57.3463C32.6054 57.3463 35.9875 58.803 39.2755 57.7302C42.6652 56.6242 44.5405 53.4167 46.5557 51.9427C48.5903 50.4548 52.2001 49.6386 54.2738 46.7752C56.3299 43.936 55.9956 40.2479 56.786 37.8019C57.5381 35.4741 60 32.6805 60 29.0628C60 25.443 57.5415 22.6609 56.786 20.3237ZM52.3257 36.3605C51.4029 39.217 51.6446 42.4137 50.4775 44.0255C49.2946 45.6587 46.1869 46.4048 43.7889 48.1588C41.4171 49.8933 39.7548 52.6429 37.8214 53.2737C35.9924 53.8707 33.0116 52.6586 30.0001 52.6586C26.9666 52.6586 24.0165 53.8732 22.1787 53.2737C20.2455 52.6429 18.5856 49.8952 16.2113 48.1587C13.8274 46.4153 10.702 45.6539 9.52254 44.0253C8.3591 42.4189 8.59172 39.2 7.67449 36.3606C6.77543 33.5787 4.6875 31.1699 4.6875 29.0628C4.6875 26.9535 6.77355 24.553 7.67426 21.765C8.59711 18.9087 8.35535 15.7117 9.52254 14.1C10.7047 12.4679 13.8148 11.7194 16.2113 9.96672C18.5905 8.2266 20.2424 5.48359 22.1784 4.85184C24.006 4.25559 26.9965 5.46695 29.9999 5.46695C33.0389 5.46695 35.9816 4.25148 37.8213 4.85184C39.7542 5.48254 41.4156 8.23129 43.7889 9.96684C46.1723 11.7102 49.298 12.4716 50.4775 14.1002C51.6411 15.7069 51.4072 18.9225 52.3255 21.7648V21.7649C53.2246 24.5468 55.3125 26.9556 55.3125 29.0628C55.3125 31.172 53.2264 33.5725 52.3257 36.3605ZM40.798 21.5399C41.7134 22.4553 41.7134 23.9392 40.798 24.8545L29.0668 36.5856C28.1515 37.501 26.6674 37.5009 25.7522 36.5856L19.2021 30.0355C18.2868 29.1202 18.2866 27.6362 19.202 26.721C20.1173 25.8058 21.6015 25.8057 22.5165 26.721L27.4095 31.6138L37.4832 21.54C38.3986 20.6247 39.8827 20.6247 40.798 21.5399Z" fill="#242424"/>
</symbol>

<symbol id="icon-support" >
 <path d="M54.6936 23.9628C54.2992 10.6825 43.3742 0 29.9999 0C16.6257 0 5.70065 10.6825 5.30618 23.9628L3.52936 25.7396V37.7898L5.29406 39.5545V47.7647C5.29406 52.5652 9.19948 56.4706 13.9999 56.4706H16.1858C16.9143 58.5246 18.8758 60 21.1764 60H24.7058C27.0079 60 28.9705 58.5225 29.6978 56.4664C29.7987 56.4681 29.8997 56.4706 29.9999 56.4706C38.5221 56.4706 45.6527 50.3981 47.2922 42.3529H51.9074L56.4705 37.7898V25.7396L54.6936 23.9628ZM29.9999 3.52941C40.4742 3.52941 49.1954 11.174 50.8807 21.1765H47.2922C45.6527 13.1313 38.5221 7.05882 29.9999 7.05882C21.4778 7.05882 14.3472 13.1313 12.7077 21.1765H9.11924C10.8045 11.174 19.5257 3.52941 29.9999 3.52941ZM43.6709 21.1765C37.9663 21.1594 33.9369 21.5068 30.6148 16.6506L29.0016 14.2926L27.6152 16.7907C25.5952 20.4306 22.8749 21.1765 19.4117 21.1765H16.329C17.9002 15.0944 23.4337 10.5882 29.9999 10.5882C36.5662 10.5882 42.0997 15.0944 43.6709 21.1765ZM12.3529 38.8235H9.55442L7.05877 36.3279V27.2015L9.55442 24.7059H12.3529V38.8235ZM8.82348 47.7647V42.3529H12.7043C13.3687 45.6441 14.9582 48.6652 17.313 51.0916C16.8194 51.6191 16.4322 52.2467 16.1858 52.9412H13.9999C11.1456 52.9412 8.82348 50.6191 8.82348 47.7647ZM24.7058 56.4706H21.1764C20.2032 56.4706 19.4117 55.6791 19.4117 54.7059C19.4117 53.7328 20.2032 52.9412 21.1764 52.9412H24.7058C25.6789 52.9412 26.4705 53.7328 26.4705 54.7059C26.4705 55.6791 25.6789 56.4706 24.7058 56.4706ZM44.1176 38.8235C44.1176 46.608 37.7844 52.9412 29.9999 52.9412C29.8988 52.9412 29.7968 52.9392 29.6949 52.9368C28.9652 50.8851 27.0048 49.4118 24.7058 49.4118C21.0823 49.4198 21.1401 49.3936 20.6884 49.4352C17.6247 46.7498 15.8823 42.9248 15.8823 38.8235V24.7059H19.4117C22.5349 24.7059 26.3384 24.1909 29.2827 20.6076C33.1674 24.6786 37.9147 24.7059 42.1762 24.7059H44.1176V38.8235ZM52.9411 36.3279L50.4455 38.8235H47.647V24.7059H50.4455L52.9411 27.2015V36.3279Z" fill="#242424"/>
</symbol>


</svg>
